# xmcd
#
# Track frame offsets:
#	150
#	24620
#	53510
#	75707
#	88537
#	105850
#	124335
#	148720
#	166120
#	181272
#	201105
#
# Disc length: 2979 seconds
#
# Revision: 1
# Processed by: cddbd v1.5.2PL0 Copyright (c) Steve Scherf et al.
# Submitted via: audiograbber 1.83.01
#
DISCID=830ba10b
DTITLE=RAILES - BLUES
DYEAR=1900
DGENRE=Blues
TTITLE0=Cuanto Bebía La Tía
TTITLE1=Espías
TTITLE2=Me Traes De Lado
TTITLE3=Tengo Hambre De Ti
TTITLE4=Te Olvide Feliz
TTITLE5=Como El Aire
TTITLE6=Un Blues En El Corazón
TTITLE7=Una Buena Razón
TTITLE8=Drivin' (instr)
TTITLE9=Querer Es Poder
TTITLE10=Me Traes De Lado (instr)
EXTD=
EXTT0=
EXTT1=
EXTT2=
EXTT3=
EXTT4=
EXTT5=
EXTT6=
EXTT7=
EXTT8=
EXTT9=
EXTT10=
PLAYORDER=
